 <svg class="output_svg_load"  version="1.0" xmlns="http://www.w3.org/2000/svg"  width="900.000000pt" height="885.000000pt" viewBox="0 0 900.000000 885.000000"  preserveAspectRatio="xMidYMid meet">  <g transform="translate(0.000000,885.000000) scale(0.100000,-0.100000)" fill="#1949c7" stroke="none"> <path d="M4074 8361 c-21 -15 -57 -32 -79 -36 -57 -10 -203 -108 -315 -211 -30 -28 -73 -62 -96 -75 -23 -13 -65 -55 -95 -94 -29 -38 -63 -81 -76 -95 -13 -14 -60 -72 -105 -130 -45 -58 -84 -107 -88 -110 -12 -11 -108 -138 -162 -216 -52 -74 -76 -116 -148 -249 -15 -27 -43 -80 -63 -117 -20 -37 -40 -75 -46 -85 -5 -10 -32 -65 -59 -123 -27 -58 -68 -144 -91 -192 -22 -48 -41 -90 -41 -93 0 -4 -6 -21 -14 -38 -35 -82 -47 -116 -61 -170 -8 -32 -15 -66 -15 -75 0 -18 -6 -31 -58 -123 -24 -44 -32 -73 -38 -135 -7 -83 -16 -127 -59 -289 -61 -228 -47 -724 26 -953 19 -58 24 -71 75 -177 84 -174 153 -264 300 -396 59 -52 129 -115 157 -141 32 -32 61 -50 86 -54 45 -8 88 -29 121 -59 14 -12 50 -30 80 -39 30 -10 71 -32 90 -50 43 -41 76 -53 163 -61 61 -5 142 -37 192 -75 6 -4 35 -10 65 -14 70 -9 111 -21 185 -57 83 -40 187 -48 710 -56 536 -7 607 0 746 74 50 26 113 66 140 90 28 24 59 43 70 43 48 0 154 75 282 199 48 47 95 90 105 95 9 4 67 64 127 133 61 68 123 138 139 155 40 44 132 174 162 233 15 27 37 65 49 85 48 72 125 221 195 375 20 42 40 111 40 135 0 14 20 64 44 110 34 66 45 101 51 155 8 73 29 179 44 218 38 94 54 180 77 412 33 338 33 748 0 1045 -22 198 -32 240 -76 334 -22 47 -40 94 -40 105 0 65 -134 91 -225 44 -34 -18 -57 -41 -166 -163 -101 -114 -187 -230 -233 -315 -21 -38 -61 -101 -90 -140 -60 -81 -77 -111 -102 -180 -10 -27 -35 -72 -56 -98 -20 -27 -42 -66 -48 -88 -6 -21 -14 -39 -18 -39 -13 0 -68 -93 -80 -135 -18 -62 -69 -124 -119 -146 -64 -27 -69 -27 -313 18 -47 9 -123 28 -170 43 -47 15 -110 35 -140 44 -30 10 -75 30 -100 45 -51 31 -81 42 -195 71 -143 36 -307 99 -365 141 -20 15 -63 32 -95 39 -46 10 -68 21 -104 55 -73 68 -95 122 -93 227 0 52 9 114 21 155 45 159 56 256 72 663 13 326 8 558 -12 571 -20 12 -21 12 -65 -20z"/> <path d="M2905 3491 c-28 -13 -68 -53 -150 -148 -104 -121 -138 -164 -155 -194 -8 -14 -36 -58 -61 -95 -25 -38 -56 -87 -68 -109 -12 -22 -26 -47 -31 -55 -5 -8 -23 -46 -40 -85 -17 -38 -36 -79 -42 -90 -7 -11 -18 -45 -25 -75 -25 -98 -31 -114 -57 -167 -35 -70 -45 -164 -56 -528 -10 -345 -26 -483 -71 -615 -28 -84 -73 -195 -98 -241 -5 -9 -17 -47 -26 -85 -10 -38 -33 -99 -51 -135 -19 -36 -34 -71 -34 -77 0 -15 1025 -17 1146 -2 43 5 105 12 137 15 l59 7 -5 41 c-7 54 -32 170 -47 222 -13 44 -66 151 -86 175 -26 31 -65 176 -71 260 -6 108 22 319 47 344 6 6 10 17 10 26 0 24 88 140 113 149 64 24 103 32 188 37 126 8 359 -19 393 -44 105 -79 600 -89 803 -17 108 39 338 71 430 61 122 -14 172 -60 275 -256 82 -155 111 -267 111 -430 1 -105 -12 -162 -47 -218 -13 -20 -26 -48 -30 -62 -24 -88 -33 -108 -62 -138 -32 -33 -69 -126 -62 -159 3 -17 39 -18 651 -23 356 -3 652 -1 656 3 4 4 6 50 4 101 -2 71 -8 106 -26 147 -34 78 -56 154 -66 234 -5 39 -17 95 -26 125 -56 183 -56 184 -65 600 -10 428 -22 588 -44 623 -16 25 -76 199 -76 222 0 8 -11 38 -24 67 -13 29 -32 73 -43 98 -10 24 -39 73 -65 109 -27 36 -48 74 -48 83 0 10 -4 26 -9 36 -5 9 -26 50 -46 91 -34 70 -82 136 -111 153 -16 10 -61 -11 -154 -72 -109 -71 -187 -108 -249 -116 -37 -4 -75 -19 -119 -46 -62 -38 -88 -46 -216 -69 -32 -5 -66 -14 -75 -18 -38 -20 -226 -50 -346 -56 -261 -12 -624 20 -795 70 -30 9 -73 21 -95 27 -22 6 -53 20 -70 30 -69 41 -114 57 -181 63 -92 8 -193 38 -234 71 -8 6 -42 19 -75 29 -33 10 -80 30 -106 45 -25 15 -56 31 -70 35 -13 4 -29 12 -36 17 -16 13 -154 20 -178 9z"/> </g> </svg> 