 <svg class="output_svg_load"  version="1.0" xmlns="http://www.w3.org/2000/svg"  width="900.000000pt" height="315.000000pt" viewBox="0 0 900.000000 315.000000"  preserveAspectRatio="xMidYMid meet">  <g transform="translate(0.000000,315.000000) scale(0.100000,-0.100000)" fill="#1553d1" stroke="none"> <path d="M1455 2780 c-3 -5 -13 -10 -21 -10 -17 0 -69 -35 -101 -67 -12 -13 -27 -23 -33 -23 -5 0 -10 -3 -10 -7 0 -5 -15 -25 -33 -45 -46 -53 -113 -140 -121 -158 -3 -8 -15 -28 -26 -45 -20 -32 -54 -99 -78 -155 -8 -19 -21 -48 -28 -63 -8 -16 -14 -39 -14 -52 0 -12 -7 -28 -15 -35 -8 -7 -15 -27 -15 -45 0 -18 -7 -52 -15 -75 -23 -66 -20 -231 6 -305 24 -70 73 -140 121 -174 18 -14 37 -30 41 -38 4 -7 16 -13 26 -13 10 0 24 -7 31 -15 7 -8 20 -15 30 -15 10 0 20 -7 24 -15 3 -9 18 -15 38 -15 18 0 42 -7 52 -15 11 -8 30 -15 43 -15 13 0 35 -7 48 -16 20 -13 58 -16 207 -17 173 -1 185 0 226 22 23 13 45 27 48 32 3 5 12 9 20 9 33 0 211 180 238 240 3 8 15 29 26 45 11 17 22 37 25 45 3 8 13 28 21 43 7 16 14 36 14 45 0 9 7 26 15 36 8 11 15 32 15 48 0 15 6 45 14 65 40 108 40 465 0 530 -8 12 -14 29 -14 37 0 22 -48 29 -75 12 -23 -15 -115 -128 -115 -141 0 -4 -13 -24 -30 -45 -16 -21 -30 -45 -30 -53 0 -8 -7 -20 -15 -27 -8 -7 -15 -18 -15 -25 0 -7 -7 -18 -15 -25 -8 -7 -15 -20 -15 -30 0 -9 -8 -25 -19 -34 -16 -14 -27 -15 -77 -7 -61 10 -139 35 -158 50 -6 5 -24 11 -41 14 -41 7 -103 31 -117 45 -7 7 -21 12 -31 12 -26 0 -56 39 -57 72 0 15 7 45 14 65 14 36 28 301 18 346 -4 19 -17 23 -27 7z"/> <path d="M5620 2109 c-33 -14 -40 -26 -40 -80 0 -39 4 -47 25 -57 40 -18 71 -14 104 14 26 22 31 33 31 70 0 39 -3 46 -26 54 -31 12 -61 12 -94 -1z"/> <path d="M7723 2072 c-73 -3 -73 -3 -73 -31 0 -16 -7 -45 -15 -64 -8 -20 -15 -55 -15 -77 0 -23 -5 -50 -10 -61 -11 -20 -54 -26 -65 -9 -10 17 -160 12 -175 -5 -7 -8 -20 -15 -30 -15 -42 0 -140 -127 -140 -182 -1 -13 -7 -34 -15 -48 -8 -14 -15 -47 -16 -75 -1 -27 -4 -63 -8 -80 -3 -16 -2 -54 4 -83 9 -42 20 -63 55 -98 24 -25 53 -44 65 -44 11 0 26 -5 32 -11 12 -12 155 -7 238 8 77 14 105 37 105 87 1 22 7 52 15 66 8 14 14 52 15 86 0 33 7 83 15 110 8 27 15 65 15 84 1 19 7 46 15 60 8 15 14 53 15 91 0 37 7 86 15 109 8 23 15 57 15 75 0 18 7 49 15 68 8 20 11 37 7 39 -4 2 -40 2 -79 0z m-158 -389 c13 -19 14 -31 7 -51 -6 -15 -13 -52 -16 -82 -3 -30 -12 -90 -18 -132 -13 -75 -14 -79 -50 -98 -45 -24 -101 -26 -118 -5 -7 8 -19 15 -26 15 -8 0 -22 15 -31 34 -15 32 -15 39 1 100 9 36 16 76 16 89 0 13 7 32 15 43 8 10 15 28 15 40 1 70 165 108 205 47z"/> <path d="M3300 2022 c0 -26 -7 -74 -15 -105 -8 -32 -15 -72 -15 -90 0 -18 -7 -41 -15 -51 -10 -13 -15 -43 -15 -87 0 -36 -7 -86 -15 -109 -8 -23 -15 -57 -15 -75 0 -18 -7 -49 -15 -68 -8 -20 -15 -64 -15 -97 0 -33 -7 -77 -15 -97 -8 -19 -15 -37 -15 -39 0 -2 36 -4 80 -4 78 0 81 1 91 26 5 15 14 63 19 108 8 69 14 101 36 184 3 9 44 12 164 12 l160 0 0 25 c0 15 7 40 16 56 30 59 25 61 -137 60 -133 -2 -147 0 -163 18 -17 19 -17 23 -2 67 9 26 16 65 16 86 0 79 -2 78 204 78 l184 0 5 43 c3 23 9 57 12 75 l7 32 -271 0 -271 0 0 -48z"/> <path d="M4724 1825 c-10 -8 -27 -15 -37 -15 -25 0 -67 -30 -67 -47 0 -8 -6 -29 -14 -46 -8 -18 -17 -63 -19 -102 -5 -75 -21 -163 -42 -235 -7 -25 -16 -75 -18 -112 l-5 -68 69 0 c81 0 84 4 95 117 3 38 12 85 20 106 8 20 14 55 14 76 0 21 7 69 16 107 14 65 18 70 54 88 28 13 53 17 88 14 l50 -5 18 52 c27 81 22 85 -99 85 -75 0 -108 -4 -123 -15z"/> <path d="M5184 1825 c-10 -8 -27 -15 -37 -15 -10 0 -31 -10 -47 -22 -25 -18 -30 -29 -30 -64 0 -23 -7 -58 -15 -77 -8 -20 -15 -53 -15 -73 0 -48 -27 -206 -46 -264 -8 -25 -14 -60 -14 -77 l0 -33 74 0 73 0 7 38 c3 20 6 51 6 67 0 17 7 39 15 49 9 12 15 43 15 75 1 31 7 83 15 116 8 33 15 75 15 92 0 28 6 36 40 53 26 13 59 20 99 20 66 0 66 0 70 78 l2 52 -103 0 c-76 0 -109 -4 -124 -15z"/> <path d="M6005 1823 c-16 -9 -37 -20 -45 -25 -8 -4 -21 -11 -29 -15 -20 -9 -51 -41 -51 -52 0 -5 -7 -11 -15 -15 -8 -3 -15 -16 -15 -29 0 -14 -7 -30 -15 -37 -9 -8 -15 -29 -15 -56 0 -24 -7 -69 -15 -101 -22 -84 -20 -168 6 -209 24 -39 69 -74 119 -91 42 -15 186 -17 195 -3 3 5 19 10 34 10 15 0 36 7 47 15 10 8 26 15 35 15 9 0 22 7 29 15 10 13 10 19 -4 33 -9 10 -16 26 -16 34 0 24 -28 44 -42 30 -7 -7 -22 -12 -34 -12 -12 0 -27 -7 -34 -15 -9 -10 -31 -15 -74 -15 -49 1 -67 5 -90 25 -25 20 -29 30 -29 69 1 25 4 50 8 55 4 7 69 11 179 11 123 0 177 4 188 13 17 13 30 174 19 235 -7 39 -47 82 -101 111 -52 27 -188 29 -235 4z m140 -113 c66 -25 88 -110 39 -149 -35 -28 -173 -31 -199 -4 -35 34 21 141 81 154 44 10 51 10 79 -1z"/> <path d="M6655 1825 c-16 -7 -48 -18 -71 -25 -44 -13 -45 -17 -73 -185 -4 -27 -13 -63 -19 -78 -7 -16 -12 -52 -12 -82 0 -30 -5 -66 -11 -82 -6 -15 -15 -53 -19 -83 -4 -30 -11 -63 -15 -73 -7 -16 -1 -18 70 -15 l78 3 13 50 c7 28 13 66 14 85 0 19 7 53 15 75 8 22 14 66 15 98 0 32 7 74 15 94 8 19 15 44 15 54 0 34 28 49 94 49 52 0 66 -4 84 -23 19 -20 22 -35 22 -114 0 -55 -6 -107 -15 -133 -8 -23 -15 -55 -15 -71 0 -15 -7 -54 -15 -86 -23 -86 -25 -83 65 -83 l80 0 0 48 c0 27 7 71 15 98 8 27 15 63 15 80 0 17 7 48 15 67 10 23 15 69 15 125 0 67 -4 93 -15 102 -8 7 -15 18 -15 24 0 17 -36 47 -88 74 -35 18 -58 22 -135 21 -54 0 -104 -6 -122 -14z"/> <path d="M8040 1825 c-7 -8 -19 -15 -28 -15 -26 0 -78 -47 -101 -90 -26 -50 -28 -126 -4 -160 23 -32 51 -60 62 -60 5 0 14 -7 21 -15 7 -8 22 -15 34 -15 39 0 127 -37 143 -59 12 -18 13 -27 3 -52 -7 -16 -18 -29 -25 -29 -7 0 -18 -7 -25 -15 -16 -20 -108 -20 -134 0 -11 8 -29 15 -40 15 -11 0 -28 7 -38 17 -17 15 -19 15 -38 -2 -11 -10 -28 -32 -38 -50 -16 -26 -17 -35 -7 -48 7 -9 19 -17 27 -17 9 0 21 -6 27 -14 14 -17 59 -26 161 -33 111 -7 200 24 255 92 27 34 30 43 30 116 0 79 0 80 -38 114 -21 19 -44 35 -51 35 -8 0 -27 7 -42 15 -16 8 -40 15 -53 15 -33 0 -88 36 -95 63 -8 29 22 69 60 79 38 11 133 0 162 -19 25 -16 52 -11 52 9 0 6 12 24 27 40 26 27 26 28 8 48 -10 11 -25 20 -34 20 -9 0 -25 7 -35 15 -28 22 -228 21 -246 0z"/> <path d="M3928 1800 c-6 -14 -15 -59 -20 -100 -5 -41 -14 -88 -20 -105 -17 -47 -28 -184 -22 -252 6 -59 9 -65 51 -103 25 -22 55 -40 67 -40 12 0 27 -5 33 -11 22 -22 241 3 300 34 29 15 32 22 38 84 4 38 14 80 21 95 8 15 14 51 14 80 0 30 7 80 15 111 8 32 15 71 15 88 0 16 7 44 16 60 8 17 14 42 12 57 -3 27 -3 27 -73 23 -38 -1 -73 -5 -77 -8 -5 -2 -8 -22 -8 -43 0 -21 -5 -51 -12 -67 -6 -15 -15 -55 -19 -88 -7 -61 -27 -191 -35 -234 -3 -13 -18 -36 -34 -52 -23 -24 -37 -29 -74 -29 -25 0 -46 5 -46 10 0 6 -11 15 -25 20 -40 15 -42 48 -17 230 5 30 13 64 19 75 12 22 21 170 11 180 -4 4 -32 8 -63 8 -53 2 -58 0 -67 -23z"/> <path d="M5555 1815 c-1 -5 -7 -26 -14 -46 -6 -21 -14 -68 -18 -105 -3 -38 -12 -81 -19 -96 -8 -15 -14 -47 -14 -72 0 -25 -7 -71 -15 -103 -8 -31 -15 -72 -15 -91 0 -18 -7 -46 -15 -63 -9 -16 -14 -33 -11 -37 2 -4 38 -6 80 -4 l76 4 0 29 c0 17 6 40 12 52 7 12 15 54 18 92 7 80 25 180 45 245 8 25 15 79 17 120 l3 75 -64 5 c-39 3 -64 1 -66 -5z"/> <path d="M1087 1317 c-42 -41 -106 -128 -122 -167 -4 -8 -13 -27 -21 -42 -8 -14 -14 -34 -14 -45 0 -10 -7 -27 -15 -37 -11 -15 -15 -51 -15 -150 -1 -129 -11 -187 -48 -253 -7 -12 -12 -29 -12 -38 0 -8 -7 -26 -16 -39 -8 -13 -11 -26 -7 -28 4 -1 100 -2 211 0 188 3 203 4 196 20 -4 9 -9 33 -12 52 -2 19 -10 42 -17 50 -49 57 -48 184 3 243 21 24 151 24 188 0 35 -23 197 -22 242 1 18 9 56 16 91 16 56 0 61 -2 83 -32 56 -79 76 -188 43 -232 -8 -11 -15 -28 -15 -38 0 -10 -4 -18 -9 -18 -12 0 -33 -60 -20 -60 5 0 96 -1 202 -1 l192 0 3 31 c2 17 -4 42 -12 55 -9 14 -16 38 -16 55 0 17 -7 47 -15 67 -11 26 -15 74 -15 182 0 114 -3 152 -15 167 -8 10 -15 29 -15 41 0 24 -36 99 -51 109 -5 3 -9 11 -9 19 0 16 -42 84 -53 85 -4 0 -26 -13 -49 -30 -22 -16 -53 -30 -68 -30 -15 0 -33 -7 -40 -15 -7 -8 -23 -15 -35 -15 -12 0 -42 -7 -65 -15 -84 -29 -342 -7 -382 33 -7 7 -28 12 -48 12 -19 0 -44 7 -54 15 -11 8 -26 15 -35 15 -8 0 -22 6 -30 14 -9 7 -31 16 -48 19 -25 5 -38 1 -56 -16z"/> </g> </svg>
